{"title":"Wrong Turn at Tahoe.2009.SWESUB.DVDRip.XviD.AC3.(5.1).-Zen_Bud","uid":5543417,"size":1193845904,"categoryP":"video","categoryS":"movies","magnet":"?xt=urn:btih:a92c4a2973617c39b8a1fcf5f972fc204a664615&amp;dn=Wrong+Turn+at+Tahoe.2009.SWESUB.DVDRip.XviD.AC3.%285.1%29.-Zen_Bud&amp;tr=udp%3A%2F%2Ftracker.openbittorrent.com%3A80&amp;tr=udp%3A%2F%2Fopen.demonii.com%3A1337&amp;tr=udp%3A%2F%2Ftracker.coppersurfer.tk%3A6969&amp;tr=udp%3A%2F%2Fexodus.desync.com%3A6969","seeders":0,"leechers":1,"uploader":"Zen_Bud","files":-1,"time":1273309972,"description":"General\nComplete name                    : Wrong Turn at Tahoe.avi\nFormat                           : AVI\nFile size                        : 1.11 GiB\nDuration                         : 1h 26mn\nOverall bit rate                 : 1 837 Kbps\n\nVideo\nID                               : 0\nFormat                           : MPEG-4 VisualD\nCodec ID/Hint                    : XviD\nDuration                         : 1h 26mn\nBit rate                         : 1 378 Kbps\nWidth                            : 720 pixels\nHeight                           : 436 pixels\nDisplay aspect ratio             : 2.35:1\nColorimetry                      : 4:2:0\nScan type                        : Progressive\nBits/(Pixel*Frame)               : 0.176\nStream size                      : 854 MiB (75%)\nWriting library                  : XviD 1.1.2 (UTC 2006-11-01)\n\nAudio\nID                               : 1\nFormat                           : AC-3\nDuration                         : 1h 26mn\nBit rate                         : 448 Kbps\nChannel(s)                       : 6 channels\nChannel positions                : Front: L C R, Side: L R, LFE\nSampling rate                    : 48.0 KHz\nStream size                      : 278 MiB (24%)\n)\n\n","torrent":{"xt":"urn:btih:a92c4a2973617c39b8a1fcf5f972fc204a664615","amp;dn":"Wrong+Turn+at+Tahoe.2009.SWESUB.DVDRip.XviD.AC3.%285.1%29.-Zen_Bud","amp;tr":["udp%3A%2F%2Ftracker.openbittorrent.com%3A80","udp%3A%2F%2Fopen.demonii.com%3A1337","udp%3A%2F%2Ftracker.coppersurfer.tk%3A6969","udp%3A%2F%2Fexodus.desync.com%3A6969"],"infoHash":"a92c4a2973617c39b8a1fcf5f972fc204a664615","infoHashBuffer":{"type":"Buffer","data":[169,44,74,41,115,97,124,57,184,161,252,245,249,114,252,32,74,102,70,21]},"announce":[],"urlList":[]}}